<svg width="48" height="48" xmlns="http://www.w3.org/2000/svg">

 <g>
  <title>background</title>
  <rect fill="none" id="canvas_background" height="50" width="50" y="-1" x="-1"/>
 </g>
 <g>
  <title>Layer 1</title>
  <g id="svg_21" class="layer">
   <g id="svg_2">
    <path id="svg_1" fill="#67e7e7" d="m5.559662,28.610838c10.866291,-9.883602 22.698233,-19.481903 33.426571,-27.083031c2.85096,-1.759411 8.736801,6.467026 7.311329,7.560711c-8.552887,11.127085 -18.071407,21.683544 -29.797123,30.813459c-3.646921,-3.763714 -7.293856,-7.527424 -10.940777,-11.29114z"/>
    <path id="svg_4" fill="#000000" d="m5.249266,29.288452l10.561426,10.613525c-5.334046,1.474102 -6.943465,-0.903481 -9.38057,1.854511l-3.034893,-3.423714c2.779227,-3.870705 0.316367,-6.172199 1.854038,-9.044323z"/>
    <path id="svg_19" fill="#67e7e7" d="m3.588736,39.267334l1.831997,1.989651l-1.951899,1.755562l-2.509589,0l2.629491,-3.745213z"/>
    <path stroke-width="3" stroke="#67e7e7" id="svg_12" fill="black" d="m0.529175,45.061676l43.433937,0"/>
   </g>
   <g id="svg_3"/>
   <g id="svg_5"/>
   <g id="svg_6"/>
   <g id="svg_7"/>
   <g id="svg_8"/>
   <g id="svg_9"/>
   <g id="svg_10"/>
   <g id="svg_11"/>
   <g id="svg_13"/>
   <g id="svg_14"/>
   <g id="svg_15"/>
   <g id="svg_16"/>
   <g id="svg_17"/>
   <g id="svg_18"/>
   <g id="svg_20"/>
  </g>
 </g>
</svg>