<?xml version="1.0" encoding="iso-8859-1"?>
<!-- Generator: Adobe Illustrator 19.0.0, SVG Export Plug-In . SVG Version: 6.00 Build 0)  -->
<svg version="1.1" id="Layer_1"
     xmlns="http://www.w3.org/2000/svg"
     xmlns:xlink="http://www.w3.org/1999/xlink"
     x="0px"
     y="0px"
	 viewBox="0 0 512.001 512.001"
     style="enable-background:new 0 0 512.001 512.001;"
     xml:space="preserve">
    <g>
        <path id="name0"
              style="fill:#FC3952;"
              d="M70.833,
                471.133L32.26,
                503.174L7.898,
                490.993c-4.36-2.18-6.126-7.485-3.937-11.846c0.459-0.918,
                1.077-1.748,
                1.818-2.454l35.307-35.307L70.833,
                471.133z"
        />
        <path id="name1"
              style="fill:#FC3952;"
              d="M504.937,
                112.146l-286.43,
                331.006L68.45,
                293.096L396.543,
                4.282c7.035-6.064,
                17.574-5.64,
                24.097,
                0.971l83.06,
                83.06C510.233,
                94.739,
                510.771,
                105.084,
                504.937,
                112.146z"
        />
    </g>
    <path d="M218.506,
            443.152l-12.446,
            12.534c-6.894,
            6.894-18.068,
            6.903-24.962,
            0.018c-0.009-0.009-0.009-0.009-0.018-0.018c-11.36-2.701-23.012-4.034-34.689-3.972c-25.986-0.839-51.443,
            7.547-71.85,
            23.656c-3.504,
            2.807-8.553,
            2.542-11.74-0.618l-25.51-25.598c-3.134-3.151-3.442-8.147-0.706-11.651c36.896-44.134,
            19.772-106.54,
            19.772-106.54c-3.301-3.328-5.146-7.838-5.12-12.534c0-4.661,
            1.836-9.136,
            5.12-12.446l12.446-12.534L218.506,
            443.152z"
    />
    <path id="name1"
          style="fill:#FC3952;"
          d="M314.718,
          512.001H32.26c-4.872,
          0-8.827-3.954-8.827-8.827c0-4.872,
          3.954-8.827,
          8.827-8.827h282.458c4.872,
          0,
          8.827,
          3.954,
          8.827,
          8.827C323.545,
          508.047,
          319.591,
          512.001,
          314.718,
          512.001z"
    />
    <g></g>
    <g></g>
    <g></g>
    <g></g>
    <g></g>
    <g></g>
    <g></g>
    <g></g>
    <g></g>
    <g></g>
    <g></g>
    <g></g>
    <g></g>
    <g></g>
    <g></g>
</svg>
