<?xml version="1.0" encoding="iso-8859-1"?>
<svg version="1.1" id="Layer_1"
     xmlns="http://www.w3.org/2000/svg"
     x="0px"
     y="0px"
     viewBox="0 0 175.001 175.001"
    style="enable-background:new 0 0 175.001 175.001;"
    xml:space="preserve">
    <g class="layer">
        <g id="svg_2">
            <path d="m19.84103,
                    110.69231c40.39487,
                    -35.52991 84.37949,
                    -70.03419 124.26154,
                    -97.35897c10.59829,
                    -6.32479 32.47863,
                    23.24787 27.17949,
                    27.17949c-31.79487,
                    40 -67.17949,
                    77.94872 -110.76923,
                    110.76923c-13.55727,
                    -13.52992 -27.11453,
                    -27.05983 -40.6718,
                    -40.58975z"
                  fill="#67e7e7"
                  id="svg_1"/>
            <path d="m18.68719,
                    113.12821l39.26154,
                    38.15385c-19.82906,
                    5.29914 -25.81197,
                    -3.24787 -34.8718,
                    6.66666l-11.28205,
                    -12.30769c10.33162,
                    -13.91453 1.17607,
                    -22.18803 6.89231,
                    -32.51282z"
                  fill="#000000"
                  id="svg_4"/>
            <path d="m12.51422,
                    149.00063l6.81037,
                    7.15244l-7.2561,
                    6.31097l-9.32927,
                    0l9.775,
                    -13.46341z"
                  fill="#67e7e7"
                  id="svg_19"/>
            <path d="m1.69532,
                    167.1476l161.46341,
                    0"
                  fill="black"
                  id="svg_12"
                  stroke="#67e7e7"
                  stroke-width="6"/>
        </g>
        <g id="svg_3"/>
        <g id="svg_5"/>
        <g id="svg_6"/>
        <g id="svg_7"/>
        <g id="svg_8"/>
        <g id="svg_9"/>
        <g id="svg_10"/>
        <g id="svg_11"/>
        <g id="svg_13"/>
        <g id="svg_14"/>
        <g id="svg_15"/>
        <g id="svg_16"/>
        <g id="svg_17"/>
        <g id="svg_18"/>
        <g id="svg_20"/>
    </g>

</svg>